# xmcd
#
# Track frame offsets: 
#        150
#        15753
#        29995
#        45687
#        59960
#        76754
#        92419
#        109985
#        126731
#        143592
#        158660
#        174320
#        188406
#        202498
#        217534
#        232355
#        245930
#        263283
#
# Disc length: 3688 seconds
#
# Revision: 0
# Processed by: cddbd v1.5.2PL0 Copyright (c) Steve Scherf et al.
# Submitted via: ExactAudioCopy v0.95b4
#
DISCID=fd0e6612
DTITLE=Jan Hayston - Ab ins Wochenende
DYEAR=2006
DGENRE=Country
TTITLE0=Ab ins Wochenende
TTITLE1=Du bist Gefühl - ich bin Verstand
TTITLE2=Hallo du Tag
TTITLE3=Alles was ich brauche bist Du
TTITLE4=Sie lacht in der Nacht
TTITLE5=Du tust mir gut
TTITLE6=Ich komm nicht aus dem Bett
TTITLE7=Du bist das 'A' und 'O' für mich
TTITLE8=Nie wieder Single sein
TTITLE9=Uns wirft nichts aus der Bahn
TTITLE10=Nie ohne Dich
TTITLE11=Unter uns gibt's doch noch Engel
TTITLE12=Vor mir steht mein Glück
TTITLE13=Du machst mir gute Laune
TTITLE14=Die Bundeswehr - sie ruft und sie trennt
TTITLE15=Der Job meines Lebens
TTITLE16=Mach Deine träume wahr
TTITLE17=Zeit zu geh'n
EXTD=
EXTT0=
EXTT1=
EXTT2=
EXTT3=
EXTT4=
EXTT5=
EXTT6=
EXTT7=
EXTT8=
EXTT9=
EXTT10=
EXTT11=
EXTT12=
EXTT13=
EXTT14=
EXTT15=
EXTT16=
EXTT17=
PLAYORDER=
